<svg xmlns="http://www.w3.org/2000/svg" width="345.67" height="125.16" viewBox="0 0 345.67 125.16">
  <defs>
    <style>
      .a2e4dd9c-0f1b-4491-bcb0-b0d6a82c3747 {
      fill: #194684;
      }

      .f117571a-0b63-428b-a8eb-d681ac33db18 {
      fill: #b11e3b;
      }
    </style>
  </defs>
  <g>
    <path class="a2e4dd9c-0f1b-4491-bcb0-b0d6a82c3747" d="M199.83,19.94a15.05,15.05,0,0,1,1.53.23l.37.08c.55.09.67.2,1.15.78a5.61,5.61,0,0,0,2.18,1.53l.25.09c1,.34,1.82.64,2.08,1.25a6,6,0,0,0,2,.89,8.81,8.81,0,0,1,2.15.84l.93.3a9.41,9.41,0,0,1,2.53,1l.2.18a22,22,0,0,0,1.93,1.57l.34.18a23.3,23.3,0,0,0,2.74,1.29,2.85,2.85,0,0,1,1.34.84l.4.36a19.42,19.42,0,0,0,2.55,1.56c.2.08.84.39,1.65.78,1.27.62,3.92,1.9,4.35,2a22.46,22.46,0,0,1,2.55.75c1,.31,2.31.74,2.59.77a2.29,2.29,0,0,0,.54,0,1.53,1.53,0,0,1,.53,0,11.22,11.22,0,0,1,1.84.74c.21.1.38.18.47.21a14.61,14.61,0,0,0,2.28.38h.46c.45,0,1.06,0,1.82,0a17.43,17.43,0,0,0,2.69,0,6.14,6.14,0,0,1,1.53-.34,11.29,11.29,0,0,1,3,0l.15.05a2.68,2.68,0,0,1,1.51.93,4.67,4.67,0,0,0,1.6,1.32,14.12,14.12,0,0,1,2,.94l.59.31.47.22a16.5,16.5,0,0,1,3,1.66,13.55,13.55,0,0,0,2.1,1.2,4,4,0,0,1,1,.61,9.75,9.75,0,0,0,1.78,1.4l1.21.61c.75.38,1.78.91,2.08,1a3.12,3.12,0,0,1,.76.43,2,2,0,0,0,1,.46l.58,0a7.6,7.6,0,0,1,2.42.36,20.27,20.27,0,0,0,3.46.53l1.05.11a23.73,23.73,0,0,0,3.33.3c.36,0,.95,0,1.57,0a12.62,12.62,0,0,0,1.52,0,14.83,14.83,0,0,0,2.47-.93l.29-.13a6.85,6.85,0,0,0,.75-.62,6.53,6.53,0,0,1,1.84-1.34l.36-.12c.61-.2,2-.67,2.26-.8s2-1.56,2.27-1.8l.93-.84c.63-.56,1.68-1.5,1.82-1.66a9.56,9.56,0,0,1,2.53-2,7.29,7.29,0,0,0,1.5-1.62,10.77,10.77,0,0,1,3.17-3.1,8.09,8.09,0,0,0,.75-.48,5.41,5.41,0,0,1,1.8-1,4.43,4.43,0,0,0,1-.42,2.92,2.92,0,0,1,1.19-.44,3.21,3.21,0,0,1,.91.15l.42.11a5.29,5.29,0,0,0,2.39,0l.35-.21a5.31,5.31,0,0,1,1.76-.82,16.82,16.82,0,0,1,2.79-.5l.54,0a5.13,5.13,0,0,1,1.41,0l1.27.25.93.18H322c1.22,0,2.17.09,2.42.76a3.91,3.91,0,0,0,.4.75c.09.15.19.32.29.51l.24.4a7.31,7.31,0,0,1,.86,1.78,2.45,2.45,0,0,0,.27.87c.42.19.51.8.58,1.33a4.79,4.79,0,0,1,0,.91,4.35,4.35,0,0,0,0,.94,2.33,2.33,0,0,0,.73.84,1.93,1.93,0,0,0,1.31-.19,3.33,3.33,0,0,0,.58-.42,2.56,2.56,0,0,1,1.18-.66,8,8,0,0,1,2.39-.19c.19,0,1.09.08,2.08.14l0-.18.19-.11.37-.41.25-.44L336,39l-.29,0-.79-.27-.28-.15.41-1.47V36.8l.16-.93-.11-.24-.11-.06h-.14l-.71-.16-.24-.14-.1-.28,0-.22.08-.29.1-.26.09-.11,0-.07-.14-.16-.21-.16-.2-.07-.15.05-.35.22-.22,0-.36-.28,0-.48.1-.45v-.2l-.23-.17-.13-.42-.05-.51,0-1,0-.17.11-.19.18-.24,0-.1,0-.13,0-.31.08-.44.15-.42.07-.44-.17-.53-1-1.09-.08-.13-.27-.61-.06-.21,0-.27.17-.45.06-.22-.2-.92-.63-.52-.71-.43-.49-.67-.07-.52V21l0-.44-.19-.4-.3-.28-.58-.4-.25-.36-.16-.56.07-.43.14-.38.08-.46,0-.53-.1-.39-.19-.31-.23-.21,0-.37-.58-.71.08-1,.24-1-.24-1-.29-.23-.42-.14-.76-.13-2.22-.37-.29-.19-.19-.32-.07-.45-.15-.38L321.94,9l-.2-.28v-.3l.09-.19.1-.17.05-.21-.08-.18-.21-.12-.24-.08-.18,0-.72,0-.22,0-.21-.12L320,7.22,320,7.06l-.11-.23-.19-.29-.24-.25-.3-.19L317.57,6l-.32-.11-.18-.15L317,5.56l-.16-.13-.47-.09-.38-.22-.16,0-.91,0L314.46,5l-.4-.21-.36-.27-.63-.6-.52-.68-.3-.28-.35-.18-.43-.07L308,3.3h-.47L306.32,3l-.39.09-.67.37-.41,0-.2-.07-.35-.22-.22,0-.7.17L302.2,3l-.43.1-.2.09-.2.13-.14.2-.06.31-.22.62-.06.11-.11.07-.36.31-.19.1-.46,0-.47,0-1.24-.43-.2-.14-.07-.27-.18-.2-2.38-1-.71-.64-.72-.5-.1,0h-.2l-.1,0L291.59.6l-.14-.12-.34-.43-.06,0H195.46l.06,18.66c1.51.48,3.66,1.17,3.84,1.21Z"></path>
    <path class="f117571a-0b63-428b-a8eb-d681ac33db18" d="M345.21,68.4l-.3-.16-.8-.15-.2-.26,0-.39.08-.5.17-.43.07-.23-.05-.1-.53-.54-.11-.33-.24-.39-.48-.59.29-.56,0-.28-.19-.25-.29-.11-.63-.05-.26-.13-.21-.29-.14-.31-.18-.28-.3-.21-.32,0-.35.06-.28,0-.11-.3.22-.16.15-.16.1-.15,0-.09-.21-.69-.28-.42-.07-.17,0-.17,0-.33v-.14l-.13-.36-.3-.38-.16-.34,0-.31.07-.26,0-.25-.27-.26-.41-.15-.34-.07-.22-.21-.09-.58c.05-.32.1-.64.16-1v-.5l-.17-.49-.33-.24-.9-.39-.19-.37-.05-.22-.1-.15-.08-.18,0-.31.06-.24.07-.13.25-.25.35-.55,0-.19-.16-.31,0-.27.07-.53.13-.42.09-.43,0-.57-.22-.55,0-.3.07-.48v-.22l-.12-.23-.3-.27-.15-.18-.09-.26,0-.19.11-.13.06-.12-.1-.17-.07-.12,0-.08,0-.07-.08,0v-.15l.1-.15.24-.64-.11-.33,0-.72-.1-.35.41-.2-.22-.18-.77-.26-.24-.28v-.06c-.92-.06-1.9-.12-2.13-.15a6.83,6.83,0,0,0-2,.17,1.42,1.42,0,0,0-.7.41,3.48,3.48,0,0,1-.82.58,3,3,0,0,1-2,.29c-.74-.1-1.4-1.11-1.57-1.45A3.08,3.08,0,0,1,326,39.8a4.27,4.27,0,0,0,0-.66,2,2,0,0,0-.13-.61c-.39-.18-.61-1-.71-1.57a11,11,0,0,0-.74-1.41l-.23-.41c-.1-.18-.19-.33-.28-.47a5.65,5.65,0,0,1-.45-.85,7,7,0,0,0-1.44-.14,2.37,2.37,0,0,1-.58,0l-.86-.16c-.48-.09-1-.19-1.31-.26a4.44,4.44,0,0,0-1.1,0l-.61,0a19.11,19.11,0,0,0-2.54.48,4.52,4.52,0,0,0-1.42.67l-.37.23c-1,.58-3.17.13-3.2.13l-.47-.12a2.14,2.14,0,0,0-.62-.11,3.93,3.93,0,0,0-.68.31,4.52,4.52,0,0,1-1.29.53,6.15,6.15,0,0,0-1.36.81,4.64,4.64,0,0,1-1.07.64,14.08,14.08,0,0,0-2.43,2.39,5.85,5.85,0,0,1-2.37,2.36,14.53,14.53,0,0,0-1.84,1.61,26.4,26.4,0,0,1-1.95,1.8c-.44.39-.8.72-.89.81-.27.27-2.13,1.75-2.48,2a19.12,19.12,0,0,1-2.49.91l-.35.11a7.41,7.41,0,0,0-1.46,1.12,4.61,4.61,0,0,1-1.05.81l-.26.12a13.9,13.9,0,0,1-2.81,1l-.61,0-1.07,0a13.89,13.89,0,0,0-1.43,0,25.36,25.36,0,0,1-3.59-.31l-1-.11a20.51,20.51,0,0,1-3.72-.58,6.79,6.79,0,0,0-2.09-.31c-.21,0-.42,0-.62,0a3,3,0,0,1-1.54-.65,3.05,3.05,0,0,0-.48-.29,22.91,22.91,0,0,1-2.24-1.08l-1.15-.58a10.06,10.06,0,0,1-2.11-1.63,7.45,7.45,0,0,0-.76-.4,13.88,13.88,0,0,1-2.28-1.31A15.07,15.07,0,0,0,256.7,43l-.5-.24c-.17-.08-.39-.19-.62-.32a14.66,14.66,0,0,0-1.79-.86,5.56,5.56,0,0,1-2.16-1.71,1.74,1.74,0,0,0-1-.55l-.15,0a10.44,10.44,0,0,0-2.56,0,5,5,0,0,0-1.21.25c-.13.07-.45.22-3.2.06-.71,0-1.26,0-1.71,0h-.5a14.9,14.9,0,0,1-2.7-.46l-.51-.23a16.79,16.79,0,0,0-1.56-.65.54.54,0,0,0-.22,0,3.08,3.08,0,0,1-.77,0,21,21,0,0,1-2.84-.82c-.88-.28-2.09-.67-2.33-.7a29,29,0,0,1-4.7-2.08c-.78-.37-1.39-.67-1.58-.75a19.14,19.14,0,0,1-2.8-1.71,6.37,6.37,0,0,1-.5-.43,1.92,1.92,0,0,0-.8-.56,17.93,17.93,0,0,1-3-1.4l-.32-.17a18.41,18.41,0,0,1-2.17-1.72l-.19-.17a13.87,13.87,0,0,0-2.14-.77,9.93,9.93,0,0,1-1.09-.37,8.16,8.16,0,0,0-1.86-.74c-.55-.1-2.51-.78-2.84-1.54a4.85,4.85,0,0,0-1.43-.64l-.25-.09A6.84,6.84,0,0,1,202,21.73a3.37,3.37,0,0,0-.32-.36l-.16,0-.43-.08A11.33,11.33,0,0,0,199.7,21l-.6-.09c-.2-.05-2.38-.74-3.58-1.13q0,13.21.07,26.43H230q0,11.28,0,22.57H345.67Z"></path>
  </g>
  <g>
    <path class="f117571a-0b63-428b-a8eb-d681ac33db18" d="M32.11,18c11.07,0,16.26,5.47,16.26,12.34,0,11-9.67,17-22.92,17H20.54L18,59.45c-.84,4.14.7,5.12,7.43,5.54L25,67.23H2.11l.49-2.1c5.19-.63,6.17-1,6.94-5l7.5-35c.91-4.13-.28-4.41-4.83-5l.42-2.1Zm-11,26.7H25c8.62,0,15.14-4.62,15.14-14.36,0-5.75-3.44-9.82-10.44-9.82H26.22Z"></path>
    <path class="f117571a-0b63-428b-a8eb-d681ac33db18" d="M56.14,58.68a15.33,15.33,0,0,0-.63,3c0,.7.35,1.05,1,1.05,1.33,0,3.16-1.47,6.17-5.18l1.19.91c-4.41,6.45-7.29,9.46-11.07,9.46-3.15,0-4.84-2.1-4.84-5.19a22.93,22.93,0,0,1,1-6l9.46-38.34L53.9,16.28l.28-1.12,12.27-2.8h1Z"></path>
    <path class="f117571a-0b63-428b-a8eb-d681ac33db18" d="M90.69,51.53c-4.2,8.9-10.09,16.4-15.84,16.4-4.83,0-7.57-4-7.57-10.44,0-14.44,10.87-27.68,21.87-27.68a9.6,9.6,0,0,1,7.36,2.94l5.75-3.43h1.68l-2.53,8.2L96.23,58.68a20.55,20.55,0,0,0-.56,3c0,.7.35,1.05,1,1.05,1.26,0,3.08-1.47,6.17-5.18l1.19.91c-4.42,6.45-7.36,9.46-11.15,9.46-3.08,0-4.76-2-4.76-5.19C88.1,60.71,89.36,55.18,90.69,51.53Zm4.07-16.12a5.24,5.24,0,0,0-5-3.43C81.93,32,75,45.22,75,57c0,3.36,1,5.53,3.16,5.53C83.26,62.53,90.48,52.09,94.76,35.41Z"></path>
    <path class="f117571a-0b63-428b-a8eb-d681ac33db18" d="M116.13,57.63a16.07,16.07,0,0,0-.56,3.5A1.65,1.65,0,0,0,117.32,63c2.45,0,4.62-1.69,8.62-6.24l1.19.91c-5,6.94-9,10.3-13.46,10.3-3.57,0-5.67-2.31-5.67-5.75a19.71,19.71,0,0,1,.7-5.25l5.68-22.71h-4.56l.42-1.61c5.4-1.75,9.32-5.54,12.89-10.37H125l-2.25,9h7.85l-.7,2.94H122Z"></path>
    <path class="f117571a-0b63-428b-a8eb-d681ac33db18" d="M139.25,57.63a16.07,16.07,0,0,0-.56,3.5A1.65,1.65,0,0,0,140.44,63c2.46,0,4.63-1.69,8.62-6.24l1.2.91c-5,6.94-9,10.3-13.46,10.3-3.58,0-5.68-2.31-5.68-5.75a19.71,19.71,0,0,1,.7-5.25l5.68-22.71h-4.56l.43-1.61c5.39-1.75,9.32-5.54,12.89-10.37h1.82l-2.24,9h7.85l-.7,2.94h-7.85Z"></path>
    <path class="f117571a-0b63-428b-a8eb-d681ac33db18" d="M161.05,51c-.07.84-.14,1.75-.14,2.59,0,6.31,2.73,9.89,7.28,9.89,4,0,7.29-2.32,10.73-6.66l1.33,1.05c-4.49,6.59-9.25,10.09-15.42,10.09-7.22,0-11.56-5.19-11.56-13,0-12.27,9.53-25.16,20.88-25.16,6,0,8.76,3.22,8.76,7.07C182.91,45.71,172.26,48.73,161.05,51Zm.21-1.68c10.09-2.38,15.13-6.24,15.13-13.11,0-2.24-1-4.06-3.43-4.06C167.35,32.12,162.52,40.81,161.26,49.29Z"></path>
  </g>
  <g>
    <path class="a2e4dd9c-0f1b-4491-bcb0-b0d6a82c3747" d="M11.56,118.81c0,3.21.69,3.55,4.81,4.06v1.72H0v-1.72c4.12-.51,4.81-.85,4.81-4.06V90.19c0-3.2-.69-3.55-4.81-4.06V84.41H16.37v1.72c-4.12.51-4.81.86-4.81,4.06Z"></path>
    <path class="a2e4dd9c-0f1b-4491-bcb0-b0d6a82c3747" d="M57.75,90.25c0-3.21-.92-3.66-5.67-4.12V84.41H65.19v1.72c-4.18.51-4.87.91-4.87,4.12v34.51H58.26L32.79,92.25v26.5c0,3.21.92,3.67,5.67,4.12v1.72H25.35v-1.72c4.18-.51,4.87-.91,4.87-4.12V89.68c-1.89-2.52-2.69-3.38-4.93-3.55V84.41H35.43L57.75,113.2Z"></path>
    <path class="a2e4dd9c-0f1b-4491-bcb0-b0d6a82c3747" d="M74.05,121.44l-.4-9.78h2c1.31,7.15,4.92,11.44,10.7,11.44,5,0,8.07-2.86,8.07-7,0-4.52-2.52-6.29-9.73-9.15C78.46,104.44,74.05,101.7,74.05,95c0-6.41,4.87-11.16,12.6-11.16a20.27,20.27,0,0,1,11.67,3.32v8.53H96.43c-.91-6.36-4.29-9.79-9.78-9.79-4.3,0-6.87,2.69-6.87,6.47,0,4.23,2.06,5.89,8.35,8.35,7.73,3.09,12.08,6,12.08,12.77,0,7.55-6.3,11.67-13.85,11.67C81.09,125.16,76.57,123.56,74.05,121.44Z"></path>
    <path class="a2e4dd9c-0f1b-4491-bcb0-b0d6a82c3747" d="M143.36,84.41,144.22,97h-1.49C139.3,88.7,138,86.3,133.29,86.3h-3.66V119c0,3.21,1.48,3.38,5.38,3.89v1.72H117.49v-1.72c4-.51,5.44-.68,5.44-3.89V86.3h-3.72c-4.75,0-6,2.4-9.39,10.65h-1.54l.85-12.54Z"></path>
    <path class="a2e4dd9c-0f1b-4491-bcb0-b0d6a82c3747" d="M163.9,118.81c0,3.21.69,3.55,4.81,4.06v1.72H152.34v-1.72c4.12-.51,4.81-.85,4.81-4.06V90.19c0-3.2-.69-3.55-4.81-4.06V84.41h16.37v1.72c-4.12.51-4.81.86-4.81,4.06Z"></path>
    <path class="a2e4dd9c-0f1b-4491-bcb0-b0d6a82c3747" d="M211.92,84.41,212.78,97h-1.49c-3.43-8.25-4.69-10.65-9.44-10.65h-3.67V119c0,3.21,1.49,3.38,5.38,3.89v1.72H186.05v-1.72c3.95-.51,5.44-.68,5.44-3.89V86.3h-3.72c-4.75,0-6,2.4-9.39,10.65h-1.54l.85-12.54Z"></path>
    <path class="a2e4dd9c-0f1b-4491-bcb0-b0d6a82c3747" d="M231.43,110.28c0,7.21,3.38,11.51,9.62,11.51,7,0,11.45-3.5,11.45-11.91V90.25c0-3.21-.81-3.66-5.56-4.12V84.41h13v1.72c-4.12.51-4.87.91-4.87,4.12v20.66c0,9.67-6.52,14.25-14.71,14.25-9.61,0-15.62-4.58-15.62-14.42V90.19c0-3.2-.75-3.55-4.87-4.06V84.41H236.3v1.72c-4.18.51-4.87.86-4.87,4.06Z"></path>
    <path class="a2e4dd9c-0f1b-4491-bcb0-b0d6a82c3747" d="M302.17,84.41,303,97h-1.49c-3.43-8.25-4.69-10.65-9.44-10.65h-3.67V119c0,3.21,1.49,3.38,5.38,3.89v1.72H276.3v-1.72c3.95-.51,5.44-.68,5.44-3.89V86.3H278c-4.75,0-6,2.4-9.39,10.65h-1.55l.86-12.54Z"></path>
    <path class="a2e4dd9c-0f1b-4491-bcb0-b0d6a82c3747" d="M311.15,122.87c4.12-.51,4.81-.85,4.81-4.06V90.19c0-3.2-.69-3.55-4.81-4.06V84.41h30.56l.29,9.9h-1.37c-2.69-6.18-4.47-7.84-8.7-7.84h-9.22v16.31H331c2.52,0,3.44-1.66,4-5.2h1.77v12.53H335c-.57-3.55-1.49-5.15-4-5.15h-8.24v13.68c0,3.09,1.6,3.89,5.38,3.89h4.47c4.35,0,6.18-2.4,9.84-8.76h1.66l-1.77,10.82H311.15Z"></path>
  </g>
</svg>
