<svg xmlns="http://www.w3.org/2000/svg" width="171.54" height="78.61" viewBox="0 0 171.54 78.61">
  <defs>
    <style>
      .b328cc20-d47d-4814-a93b-52d0dd908cbf {
        fill: #194684;
      }

      .e3036666-480e-4d39-87f7-32337d988683 {
        fill: #b11e3b;
      }
    </style>
  </defs>
  <g>
    <path class="b328cc20-d47d-4814-a93b-52d0dd908cbf" d="M5,22.77A14.46,14.46,0,0,1,6.73,23a3.76,3.76,0,0,0,.43.08c.62.11.77.24,1.31.9A6.66,6.66,0,0,0,11,25.77l.29.1c1.11.39,2.08.73,2.37,1.42a6.78,6.78,0,0,0,2.31,1,10.8,10.8,0,0,1,2.46,1c.11.06.63.22,1.05.35a10,10,0,0,1,2.89,1.13l.23.19a23.6,23.6,0,0,0,2.21,1.8l.39.2a25.92,25.92,0,0,0,3.12,1.48,3.17,3.17,0,0,1,1.54,1,4,4,0,0,0,.45.4,22.53,22.53,0,0,0,2.91,1.8c.23.09,1,.44,1.88.89,1.46.7,4.49,2.17,5,2.26a21.73,21.73,0,0,1,2.91.85c1.12.36,2.64.85,3,.88a2.9,2.9,0,0,0,.61,0,2,2,0,0,1,.61,0,13.3,13.3,0,0,1,2.09.84l.54.24a17,17,0,0,0,2.61.44h.53A20.59,20.59,0,0,1,55,44,19.44,19.44,0,0,0,58,44a6.86,6.86,0,0,1,1.75-.38,12.78,12.78,0,0,1,3.46,0l.17.05a3.15,3.15,0,0,1,1.73,1.07A5.36,5.36,0,0,0,67,46.29a16.22,16.22,0,0,1,2.26,1.07l.68.35.54.26a17.82,17.82,0,0,1,3.37,1.89,15.89,15.89,0,0,0,2.4,1.37,4.64,4.64,0,0,1,1.21.7,11.3,11.3,0,0,0,2,1.6c.24.11.78.38,1.38.69.86.44,2,1.05,2.38,1.16a3.54,3.54,0,0,1,.87.49,2.26,2.26,0,0,0,1.12.52l.67,0a9,9,0,0,1,2.76.42,24.15,24.15,0,0,0,4,.6c.5.05.92.09,1.19.13a28.6,28.6,0,0,0,3.8.35,17.53,17.53,0,0,1,1.79,0,17,17,0,0,0,1.74,0A17.78,17.78,0,0,0,104,56.86l.32-.14a8.92,8.92,0,0,0,.86-.72,7.46,7.46,0,0,1,2.1-1.52l.41-.14c.7-.23,2.33-.76,2.59-.91s2.31-1.79,2.58-2.06c.11-.1.54-.5,1.07-1,.72-.63,1.91-1.7,2.07-1.89s2.15-2.19,2.89-2.31a8.31,8.31,0,0,0,1.72-1.86,12.19,12.19,0,0,1,3.62-3.53,7.69,7.69,0,0,0,.86-.56,6.07,6.07,0,0,1,2-1.12,5.46,5.46,0,0,0,1.11-.48,3.3,3.3,0,0,1,1.36-.51,3.71,3.71,0,0,1,1,.17c.14,0,.29.09.48.13a6.07,6.07,0,0,0,2.73,0l.4-.24a6.18,6.18,0,0,1,2-.94,19,19,0,0,1,3.2-.57l.61,0a6.21,6.21,0,0,1,1.61,0c.32.08.92.19,1.45.29l1.06.2h.38c1.39,0,2.48.11,2.76.87a4.78,4.78,0,0,0,.46.86l.34.58.26.46a8.48,8.48,0,0,1,1,2,3.23,3.23,0,0,0,.3,1c.48.21.58.9.67,1.51a4.82,4.82,0,0,1,0,1.05,5.64,5.64,0,0,0,0,1.07,2.49,2.49,0,0,0,.84,1,2.24,2.24,0,0,0,1.49-.22,3.12,3.12,0,0,0,.66-.48,2.82,2.82,0,0,1,1.35-.75,9.1,9.1,0,0,1,2.73-.22c.21,0,1.25.1,2.37.16l0-.2.22-.13.42-.47.29-.51-.19-.24-.33-.05-.9-.3-.32-.18.46-1.67V42l.19-1.07-.13-.27-.12-.07h-.17l-.8-.18-.28-.16L158,40l0-.25.09-.34.11-.29.1-.13,0-.08-.16-.18-.25-.18-.23-.08-.17.06-.39.25-.25,0-.42-.32,0-.54.11-.52v-.23l-.26-.2-.15-.47,0-.59V34.8l.06-.2.12-.21.21-.27,0-.12,0-.15,0-.36.09-.5.17-.47.07-.51-.18-.61-1.17-1.24-.09-.15-.3-.7-.08-.23,0-.32.19-.51.07-.25L155.06,27l-.72-.59-.82-.5L153,25.1l-.08-.59V24l0-.5-.22-.46-.35-.32-.66-.45-.28-.41-.18-.65.08-.48.16-.45.09-.51,0-.61-.11-.45-.21-.35-.28-.24,0-.42-.67-.82.1-1.12.27-1.18-.27-1.09-.34-.27-.47-.16-.87-.15-2.54-.42-.34-.22-.21-.37-.08-.51-.18-.43-.81-.63-.23-.31V9.64l.1-.22.12-.19.06-.25-.1-.2-.24-.14-.27-.08-.21,0-.82.05-.25-.05-.24-.14-.11-.14-.06-.19-.13-.26-.22-.33-.27-.29L141.22,7l-1.78-.14-.36-.12-.2-.18-.14-.18-.18-.15L138,6.09l-.43-.24-.19,0-1,0-.46-.11-.46-.24-.42-.3-.72-.69-.59-.77-.33-.33-.4-.21-.5-.07-3.93.73H128l-1.42-.35-.44.1-.77.41-.47,0-.23-.09-.39-.25-.25-.05-.81.2-1.35-.31-.48.11-.24.11-.22.14-.16.23-.07.36-.25.71-.07.12-.13.08-.41.36-.21.11-.53,0-.54,0-1.41-.49-.23-.16-.08-.31-.2-.22-2.73-1.18-.81-.74-.82-.56-.11,0H112l-.12,0L109.77.69l-.15-.14-.39-.49L109.17,0H0L.06,21.31l4.4,1.39Z"/>
    <path class="e3036666-480e-4d39-87f7-32337d988683" d="M171,78.12l-.34-.19-.92-.18-.22-.29-.05-.45.09-.57.2-.48.07-.27-.06-.12-.6-.61-.12-.38-.27-.44-.55-.67.33-.64,0-.32-.21-.29L168,72.1l-.72-.06-.29-.15-.24-.34-.16-.35-.2-.32-.36-.24-.35,0-.41.06-.32-.05-.12-.34.25-.19.18-.17.1-.18,0-.1-.24-.78-.32-.48-.08-.21,0-.18,0-.38v-.16l-.15-.41-.35-.44-.17-.38,0-.36.08-.3,0-.28-.31-.29-.47-.18-.38-.08-.26-.24-.1-.66.18-1.1,0-.57-.2-.56-.37-.27-1-.44-.21-.43-.05-.25-.12-.17-.1-.21v-.35l.06-.28.09-.14.28-.29.4-.63,0-.22-.19-.35,0-.31.08-.6.15-.48.11-.5-.06-.65-.24-.62,0-.35.09-.54v-.25l-.14-.27-.34-.31-.16-.2-.11-.3,0-.22.12-.14.07-.14-.11-.19-.08-.14,0-.1,0-.08-.1-.06V51l.12-.17.27-.73-.12-.38,0-.83-.11-.39.46-.23-.25-.21-.88-.29-.26-.33v-.07c-1.05-.06-2.17-.13-2.44-.17a7.9,7.9,0,0,0-2.26.2,1.63,1.63,0,0,0-.8.47,4.23,4.23,0,0,1-.93.66,3.46,3.46,0,0,1-2.25.34c-.85-.12-1.6-1.27-1.79-1.66a3.57,3.57,0,0,1-.1-1.73,4.5,4.5,0,0,0,0-.76,3.65,3.65,0,0,0-.15-.69c-.46-.21-.71-1.09-.82-1.79a12.19,12.19,0,0,0-.84-1.61l-.27-.47c-.11-.21-.22-.38-.31-.54a5.81,5.81,0,0,1-.52-1,7,7,0,0,0-1.65-.16,3.66,3.66,0,0,1-.66,0l-1-.19-1.5-.29a4.66,4.66,0,0,0-1.25,0l-.69,0a23.06,23.06,0,0,0-2.91.54,5.28,5.28,0,0,0-1.62.78l-.42.26c-1.09.65-3.63.15-3.65.14l-.55-.13a2.37,2.37,0,0,0-.7-.13,5.2,5.2,0,0,0-.78.36,5.7,5.7,0,0,1-1.47.6,7.31,7.31,0,0,0-1.55.92,5,5,0,0,1-1.23.73,16.63,16.63,0,0,0-2.77,2.73c-.17.59-2,2.57-2.71,2.7a16.28,16.28,0,0,0-2.1,1.84c-.14.19-.71.7-2.23,2.06-.5.44-.91.82-1,.91-.31.32-2.43,2-2.83,2.25a22.69,22.69,0,0,1-2.84,1l-.41.14A7.81,7.81,0,0,0,106,57a5.66,5.66,0,0,1-1.2.93l-.31.13a15.31,15.31,0,0,1-3.2,1.18c-.19,0-.43,0-.69,0l-1.23,0a15,15,0,0,0-1.63,0,29.86,29.86,0,0,1-4.1-.35c-.26,0-.66-.08-1.14-.13A23.57,23.57,0,0,1,88.23,58a7.8,7.8,0,0,0-2.39-.34l-.71,0a3.4,3.4,0,0,1-1.76-.74,2.24,2.24,0,0,0-.54-.33c-.4-.13-1.32-.6-2.56-1.23-.57-.3-1.08-.56-1.32-.66a13.15,13.15,0,0,1-2.41-1.87,7.9,7.9,0,0,0-.86-.46,14.9,14.9,0,0,1-2.6-1.49,17.14,17.14,0,0,0-3.15-1.75l-.57-.27-.71-.37a15.11,15.11,0,0,0-2-1,6.43,6.43,0,0,1-2.47-2A1.94,1.94,0,0,0,63,44.92l-.17-.06a11.46,11.46,0,0,0-2.92,0,5.58,5.58,0,0,0-1.38.28c-.15.08-.51.25-3.65.07-.82-.05-1.45,0-2,0l-.57,0a16.21,16.21,0,0,1-3.08-.53l-.59-.26c-.46-.21-1.54-.7-1.78-.75a1,1,0,0,0-.24,0,3.92,3.92,0,0,1-.89,0,25,25,0,0,1-3.24-.94c-1-.32-2.39-.77-2.66-.8-.5,0-2.06-.77-5.38-2.37-.88-.43-1.58-.77-1.8-.86a22.57,22.57,0,0,1-3.19-2,6.58,6.58,0,0,1-.57-.5,2.31,2.31,0,0,0-.91-.64,19.74,19.74,0,0,1-3.47-1.59l-.37-.2a20.16,20.16,0,0,1-2.47-2l-.22-.19a17,17,0,0,0-2.44-.88,12.42,12.42,0,0,1-1.25-.42,9.9,9.9,0,0,0-2.12-.85c-.63-.11-2.87-.89-3.24-1.76a5.88,5.88,0,0,0-1.63-.73l-.29-.1a7.76,7.76,0,0,1-3-2.14,4.84,4.84,0,0,0-.37-.42l-.18,0-.49-.1c-.53-.12-1.16-.19-1.62-.25a5.17,5.17,0,0,1-.68-.1c-.23-.05-2.71-.84-4.09-1.28L.15,52.82H39.46q0,12.9,0,25.79H171.54Z"/>
  </g>
</svg>
